<svg id="Camada_1" data-name="Camada 1" xmlns="http://www.w3.org/2000/svg" xmlns:xlink="http://www.w3.org/1999/xlink" viewBox="0 0 175 46.25"><defs><style>.cls-1{fill:url(#Gradiente_sem_nome_174);}.cls-2{fill:url(#Gradiente_sem_nome_174-2);}.cls-3{fill:url(#Gradiente_sem_nome_174-3);}.cls-4{fill:url(#Gradiente_sem_nome_174-4);}.cls-5{fill:url(#Gradiente_sem_nome_15);}.cls-6{fill:url(#Gradiente_sem_nome_15-2);}.cls-7{fill:url(#Gradiente_sem_nome_15-3);}.cls-8{fill:url(#Gradiente_sem_nome_15-4);}.cls-9{fill:url(#Gradiente_sem_nome_15-5);}.cls-10{fill:url(#Gradiente_sem_nome_15-6);}.cls-11{fill:url(#Gradiente_sem_nome_15-7);}</style><linearGradient id="Gradiente_sem_nome_174" x1="7.17" y1="25.39" x2="45.89" y2="25.39" gradientUnits="userSpaceOnUse"><stop offset="0" stop-color="#c81c1c"/><stop offset="1" stop-color="#ff6261"/></linearGradient><linearGradient id="Gradiente_sem_nome_174-2" x1="8.19" y1="25.39" x2="44.88" y2="25.39" xlink:href="#Gradiente_sem_nome_174"/><linearGradient id="Gradiente_sem_nome_174-3" x1="17.67" y1="23.13" x2="47.33" y2="23.13" xlink:href="#Gradiente_sem_nome_174"/><linearGradient id="Gradiente_sem_nome_174-4" x1="57.5" y1="26.92" x2="166.5" y2="27.42" xlink:href="#Gradiente_sem_nome_174"/><linearGradient id="Gradiente_sem_nome_15" x1="57.5" y1="26.83" x2="166.5" y2="27.33" xlink:href="#Gradiente_sem_nome_174"/><linearGradient id="Gradiente_sem_nome_15-2" x1="57.5" y1="26.77" x2="166.5" y2="27.27" xlink:href="#Gradiente_sem_nome_174"/><linearGradient id="Gradiente_sem_nome_15-3" x1="57.49" y1="29.37" x2="166.49" y2="29.87" xlink:href="#Gradiente_sem_nome_174"/><linearGradient id="Gradiente_sem_nome_15-4" x1="57.51" y1="26.5" x2="166.51" y2="27" xlink:href="#Gradiente_sem_nome_174"/><linearGradient id="Gradiente_sem_nome_15-5" x1="57.49" y1="29.12" x2="166.49" y2="29.62" xlink:href="#Gradiente_sem_nome_174"/><linearGradient id="Gradiente_sem_nome_15-6" x1="57.51" y1="26.22" x2="166.51" y2="26.72" xlink:href="#Gradiente_sem_nome_174"/><linearGradient id="Gradiente_sem_nome_15-7" x1="57.49" y1="29.13" x2="166.49" y2="29.63" xlink:href="#Gradiente_sem_nome_174"/></defs><title>Prancheta 2</title><path class="cls-1" d="M26.53,44.75A19.36,19.36,0,1,1,45.89,25.39,19.39,19.39,0,0,1,26.53,44.75Zm0-37A17.68,17.68,0,1,0,44.21,25.39,17.7,17.7,0,0,0,26.53,7.71Z"/><path class="cls-2" d="M26.53,43.73A18.34,18.34,0,1,1,44.88,25.39,18.36,18.36,0,0,1,26.53,43.73Zm0-35.09A16.75,16.75,0,1,0,43.28,25.39,16.78,16.78,0,0,0,26.53,8.64Z"/><path class="cls-3" d="M17.67,44.75,25.27,1.5h8.47L27.5,36.84H47.33l-1.42,7.91Z"/><path class="cls-4" d="M54.35,36.87,57.84,17h3.9L58.87,33.23H68l-.66,3.64Z"/><path class="cls-5" d="M77.59,37.21a8,8,0,0,1-3.54-.74,6,6,0,0,1-2.38-2,9.44,9.44,0,0,1-1.3-2.78A12.35,12.35,0,0,1,70,28.4a14.79,14.79,0,0,1,1.11-5.79,10.08,10.08,0,0,1,3.36-4.31,8.66,8.66,0,0,1,5.27-1.66,6.48,6.48,0,0,1,5.52,2.53,10,10,0,0,1,1.9,6.14,13.56,13.56,0,0,1-2.63,8.45A8.25,8.25,0,0,1,77.59,37.21Zm0-3.69a4.81,4.81,0,0,0,4.15-2.37,10.28,10.28,0,0,0,1.59-5.84,6.31,6.31,0,0,0-1-3.51,3.23,3.23,0,0,0-2.91-1.47,4.71,4.71,0,0,0-4.12,2.45,10.22,10.22,0,0,0-1.57,5.62A6.74,6.74,0,0,0,74.69,32,3.17,3.17,0,0,0,77.56,33.52Z"/><path class="cls-6" d="M88.53,36.87,92,17h3.89L93.05,33.23h9.12l-.65,3.64Z"/><path class="cls-7" d="M103.5,36.87l.23-1.22,9-11.51h-6.39l.31-1.79h9.12l-.2,1.2-9.06,11.53h7l-.31,1.79Z"/><path class="cls-8" d="M117.63,36.87l2.55-14.52h2l-2.55,14.52Zm4.09-17.5a1.13,1.13,0,0,1-.8-.31,1.09,1.09,0,0,1-.31-.8,1.54,1.54,0,0,1,.45-1.11,1.45,1.45,0,0,1,1-.45,1.1,1.1,0,0,1,.82.31,1.07,1.07,0,0,1,.31.8,1.5,1.5,0,0,1-.45,1.1A1.41,1.41,0,0,1,121.72,19.37Z"/><path class="cls-9" d="M124.47,36.87,127,22.35h2l-.28,1.59a5.07,5.07,0,0,1,4-1.93,3.83,3.83,0,0,1,2.94,1.12,4.82,4.82,0,0,1,1,3.37,13.39,13.39,0,0,1-.2,2.33l-1.42,8h-2l1.54-8.75a8.88,8.88,0,0,0,.14-1.48,3,3,0,0,0-.66-2.1,2.33,2.33,0,0,0-1.84-.74,3.87,3.87,0,0,0-2.8,1.18A5.37,5.37,0,0,0,128,28.06l-1.54,8.81Z"/><path class="cls-10" d="M139.82,36.87l3.46-19.66,2.14-.85L144.05,24a5.06,5.06,0,0,1,4-2,4.13,4.13,0,0,1,3.07,1,4.51,4.51,0,0,1,1,3.22,15.09,15.09,0,0,1-.25,2.58l-1.42,8h-1.94L150.05,28a9.41,9.41,0,0,0,.14-1.37c0-1.89-.88-2.84-2.64-2.84q-3.45,0-4.18,4.15l-1.56,8.92Z"/><path class="cls-11" d="M160.39,37.21a4.52,4.52,0,0,1-3.86-1.69,6.73,6.73,0,0,1-1.28-4.22,11.16,11.16,0,0,1,.47-3.22,11.66,11.66,0,0,1,1.33-3,6.79,6.79,0,0,1,2.32-2.23,6.32,6.32,0,0,1,3.24-.85,4.48,4.48,0,0,1,3.87,1.73,6.87,6.87,0,0,1,1.27,4.18,11.38,11.38,0,0,1-.46,3.21,11.59,11.59,0,0,1-1.32,3,6.67,6.67,0,0,1-2.33,2.24A6.31,6.31,0,0,1,160.39,37.21Zm0-1.79a4.23,4.23,0,0,0,3-1.2,7,7,0,0,0,1.82-2.86,10.73,10.73,0,0,0,.55-3.44A5.22,5.22,0,0,0,165,25a2.62,2.62,0,0,0-2.37-1.21,4.26,4.26,0,0,0-3,1.19,6.83,6.83,0,0,0-1.83,2.86,10.83,10.83,0,0,0-.55,3.45,5.19,5.19,0,0,0,.78,2.94A2.64,2.64,0,0,0,160.39,35.42Z"/></svg>